<?xml version="1.0"?>
<svg xmlns="http://www.w3.org/2000/svg" viewBox="0 0 512 512" width="512" height="512"><g id="_07-tip" data-name="07-tip"><g id="linear_color" data-name="linear color"><path d="M400,68a43.808,43.808,0,0,0-20,4.8V16A12,12,0,0,0,368,4H128a12,12,0,0,0-12,12V448a12,12,0,0,0,12,12h47.212A92.006,92.006,0,0,0,256,508h96a92.235,92.235,0,0,0,90.146-73.59l.006-.036.015-.074A91.9,91.9,0,0,0,444,416V112A44.049,44.049,0,0,0,400,68ZM385.855,97.855A20,20,0,0,1,420,112V317.132L380,298.4V112A19.876,19.876,0,0,1,385.855,97.855ZM140,28H356V287.167l-54.955-25.73a11.868,11.868,0,0,0-2.179-.766A27.933,27.933,0,0,0,308,240v-4h4a12,12,0,0,0,0-24h-4.228A36,36,0,0,0,236,216v16a12,12,0,0,1-24,0V208a4,4,0,0,1,4-4,12,12,0,0,0,0-24,28.032,28.032,0,0,0-28,28v4h-4a12,12,0,0,0,0,24h4.228A36,36,0,0,0,260,232V216a12,12,0,0,1,24,0v24a4,4,0,0,1-4,4,12,12,0,0,0,0,24,28.057,28.057,0,0,0,4.395-.348c-5.173,7.134-16.054,24.965-12.567,44.793,2.454,13.955,11.267,25.381,26.193,33.959,8.4,4.831,37.15,21.109,42.235,24.214C329.709,383.244,312.4,404.833,308.716,436H140ZM352,484H256a68.014,68.014,0,0,1-51.853-24H320a12,12,0,0,0,12-12c0-30.136,16.684-50.063,27.724-63.25a101.1,101.1,0,0,0,8.03-10.387,12,12,0,0,0-2.509-15.6c-6.839-5.677-46.927-28.378-55.266-33.171-8.553-4.916-13.3-10.551-14.5-17.227-1.287-7.139,1.6-15,4.732-20.823L420,343.632V415.4l-1.479,14.7A68.162,68.162,0,0,1,352,484Z"/><path d="M176,172a12,12,0,0,0,12-12V122.794A60.187,60.187,0,0,0,234.794,76h26.412A60.187,60.187,0,0,0,308,122.794V160a12,12,0,0,0,24,0V112a12,12,0,0,0-12-12,36.04,36.04,0,0,1-36-36,12,12,0,0,0-12-12H224a12,12,0,0,0-12,12,36.04,36.04,0,0,1-36,36,12,12,0,0,0-12,12v48A12,12,0,0,0,176,172Z"/><path d="M212,400a12,12,0,0,0,12,12h48a12,12,0,0,0,0-24H234.794A60.187,60.187,0,0,0,188,341.206V288a12,12,0,0,0-24,0v64a12,12,0,0,0,12,12A36.04,36.04,0,0,1,212,400Z"/></g></g></svg>
